<svg width="10" height="10" viewBox="0 0 10 10" fill="none" xmlns="http://www.w3.org/2000/svg">
<path fill-rule="evenodd" clip-rule="evenodd" d="M0.720073 0.781676C0.860693 0.641226 1.05132 0.562336 1.25007 0.562336C1.44882 0.562336 1.63944 0.641226 1.78007 0.781676L5.00007 4.00168L8.22007 0.781676C8.28877 0.707986 8.37157 0.648886 8.46357 0.607896C8.55557 0.566906 8.65487 0.544866 8.75557 0.543086C8.85627 0.541306 8.95627 0.559836 9.04967 0.597556C9.14307 0.635276 9.22787 0.691416 9.29907 0.762636C9.37037 0.833856 9.42647 0.918696 9.46417 1.01208C9.50187 1.10547 9.52047 1.2055 9.51867 1.3062C9.51687 1.40691 9.49487 1.50622 9.45387 1.59822C9.41287 1.69022 9.35377 1.77302 9.28007 1.84168L6.06007 5.06168L9.28007 8.28168C9.35377 8.35038 9.41287 8.43318 9.45387 8.52518C9.49487 8.61718 9.51687 8.71648 9.51867 8.81718C9.52047 8.91788 9.50187 9.01788 9.46417 9.11128C9.42647 9.20468 9.37037 9.28948 9.29907 9.36068C9.22787 9.43198 9.14307 9.48808 9.04967 9.52578C8.95627 9.56348 8.85627 9.58208 8.75557 9.58028C8.65487 9.57848 8.55557 9.55648 8.46357 9.51548C8.37157 9.47448 8.28877 9.41538 8.22007 9.34168L5.00007 6.12168L1.78007 9.34168C1.63789 9.47418 1.44984 9.54628 1.25554 9.54288C1.06124 9.53938 0.875862 9.46068 0.738442 9.32328C0.601032 9.18588 0.522323 9.00048 0.518893 8.80618C0.515463 8.61188 0.587593 8.42388 0.720073 8.28168L3.94007 5.06168L0.720073 1.84168C0.579623 1.70106 0.500732 1.51043 0.500732 1.31168C0.500732 1.11293 0.579623 0.922306 0.720073 0.781676Z" fill="white"/>
</svg>
