<svg width="14" height="13" viewBox="0 0 14 13" fill="none" xmlns="http://www.w3.org/2000/svg">
<path d="M13.1774 12.0602H0.822045C0.583871 12.0602 0.363792 11.9331 0.244708 11.7268C0.125623 11.5206 0.125625 11.2664 0.244712 11.0602L6.42205 0.393518C6.54123 0.187593 6.76112 0.060791 6.99905 0.060791C7.23697 0.060791 7.45687 0.187593 7.57605 0.393518L13.7534 11.0602C13.8724 11.2663 13.8725 11.5203 13.7536 11.7266C13.6346 11.9328 13.4148 12.0599 13.1767 12.0602H13.1774ZM6.33338 8.72685V10.0602H6.95538H6.99871H7.04205H7.66538V8.72685H6.33338ZM6.33338 4.06019V7.39352H7.66671V4.06019H6.33338Z" fill="white"/>
</svg>
