<svg width="16" height="17" viewBox="0 0 16 17" fill="none" xmlns="http://www.w3.org/2000/svg">
<path fill-rule="evenodd" clip-rule="evenodd" d="M8 16.0615C12.4183 16.0615 16 12.4798 16 8.06152C16 3.64324 12.4183 0.0615234 8 0.0615234C3.58172 0.0615234 0 3.64324 0 8.06152C0 12.4798 3.58172 16.0615 8 16.0615ZM11.7803 6.34185C12.0732 6.04896 12.0732 5.57408 11.7803 5.28119C11.4874 4.9883 11.0126 4.9883 10.7197 5.28119L6.75 9.25086L5.28033 7.78119C4.98744 7.4883 4.51256 7.4883 4.21967 7.78119C3.92678 8.07408 3.92678 8.54896 4.21967 8.84185L6.21967 10.8418C6.51256 11.1347 6.98744 11.1347 7.28033 10.8418L11.7803 6.34185Z" fill="white"/>
</svg>
